<?xml version="1.0" standalone="no"?>
<!DOCTYPE svg PUBLIC "-//W3C//DTD SVG 20010904//EN"
 "http://www.w3.org/TR/2001/REC-SVG-20010904/DTD/svg10.dtd">
<svg version="1.0" xmlns="http://www.w3.org/2000/svg"
 width="880.000000pt" height="1092.000000pt" viewBox="0 0 880.000000 1092.000000"
 preserveAspectRatio="xMidYMid meet">

<g transform="translate(0.000000,1092.000000) scale(0.100000,-0.100000)"
fill="#000000" stroke="none">
<path d="M2046 10504 c-333 -45 -698 -208 -987 -441 -105 -86 -252 -242 -331
-353 -37 -52 -99 -158 -137 -235 -183 -370 -233 -736 -155 -1125 41 -202 162
-475 280 -634 l66 -90 -21 -60 c-36 -105 -51 -188 -51 -287 0 -264 123 -466
355 -580 62 -30 65 -34 80 -84 19 -68 19 -77 -5 -155 -459 -1484 37 -3071
1263 -4038 357 -282 835 -523 1276 -643 l123 -34 28 -55 c41 -79 90 -132 159
-169 132 -70 297 -43 425 70 l34 29 7 -52 c11 -85 60 -223 106 -301 99 -168
277 -287 453 -304 89 -8 160 15 224 72 30 27 53 41 57 35 12 -19 104 -60 172
-76 186 -43 339 48 405 241 19 55 17 55 103 24 85 -30 209 -24 287 14 69 34
141 109 176 185 l27 57 0 275 c0 202 4 281 13 297 7 13 32 33 55 44 66 34 287
181 400 266 922 698 1467 1795 1467 2955 0 478 -110 1024 -290 1438 -34 78
-46 123 -66 255 -125 795 -357 1413 -705 1883 -98 131 -311 341 -427 420 -173
118 -377 200 -594 238 -121 21 -461 29 -615 14 -632 -61 -1389 -362 -1992
-792 -46 -32 -85 -58 -87 -55 -2 2 -8 37 -14 78 -26 187 -108 329 -251 435
l-46 34 -6 157 c-6 171 -23 283 -64 408 -85 265 -241 447 -477 555 -195 90
-457 120 -720 84z m504 -219 c242 -51 401 -217 503 -525 30 -92 66 -252 80
-361 l5 -36 -118 1 -118 0 -22 72 c-83 281 -269 478 -486 515 -66 12 -144 6
-144 -9 0 -5 31 -32 69 -60 165 -126 300 -307 380 -510 l21 -53 -73 -33 c-39
-18 -91 -45 -114 -59 -24 -15 -46 -27 -51 -27 -4 0 -25 35 -46 79 -74 153
-205 290 -331 346 -95 42 -215 57 -215 26 0 -5 29 -32 63 -60 161 -127 272
-279 343 -467 l23 -61 -35 -34 c-54 -51 -123 -147 -157 -216 -17 -35 -34 -63
-37 -63 -4 0 -21 34 -39 75 -106 241 -314 442 -501 484 -56 13 -157 14 -164 2
-3 -5 34 -40 82 -79 211 -168 348 -353 412 -557 17 -52 24 -104 27 -200 5
-116 3 -136 -17 -187 -26 -70 -89 -129 -155 -148 -97 -27 -218 6 -299 80 -57
53 -88 105 -117 200 -21 66 -24 95 -24 238 0 144 -2 162 -17 162 -36 0 -104
-115 -128 -219 -15 -65 -8 -200 14 -286 44 -164 146 -309 257 -364 144 -72
331 -66 480 15 66 36 150 126 189 203 l31 63 22 -20 c61 -55 171 -85 317 -85
176 0 328 59 441 172 87 87 136 181 94 181 -9 0 -60 -22 -115 -50 -181 -91
-369 -125 -488 -90 -92 28 -131 109 -119 244 26 278 429 586 737 563 94 -7
151 -27 215 -75 166 -125 203 -389 96 -703 -97 -288 -288 -508 -661 -764 -80
-56 -137 -101 -134 -107 15 -25 187 6 317 57 13 6 21 -2 37 -37 82 -186 -29
-406 -274 -543 -338 -189 -975 -263 -1316 -154 -143 46 -262 135 -309 231 -33
68 -54 183 -46 253 6 65 33 158 43 153 4 -2 40 -20 81 -41 136 -71 332 -102
331 -53 0 6 -42 34 -92 61 -214 117 -384 287 -482 483 -193 384 -244 875 -131
1251 49 162 117 297 224 441 80 109 301 325 411 403 211 149 494 261 751 297
95 13 391 4 479 -15z m3775 -1169 c174 -53 325 -152 420 -277 65 -86 150 -265
175 -369 45 -192 7 -364 -100 -440 l-29 -21 -73 60 c-223 181 -500 315 -808
391 -176 43 -286 55 -497 55 l-193 0 -7 35 c-10 56 13 187 47 258 61 131 224
252 400 298 141 36 213 43 395 40 161 -3 190 -6 270 -30z m-1414 -1276 c159
-30 296 -150 405 -355 25 -47 50 -83 54 -80 17 11 23 122 11 227 -6 59 -14
115 -17 123 -13 33 253 12 429 -35 143 -38 322 -125 405 -196 l37 -32 -78 -81
c-98 -103 -183 -231 -152 -231 2 0 38 13 79 30 223 88 407 98 553 31 143 -67
213 -202 213 -413 0 -71 12 -87 32 -43 6 14 15 24 19 23 4 -2 28 -31 53 -66
49 -66 138 -132 205 -153 20 -6 70 -13 113 -16 89 -6 84 2 94 -153 l6 -95 -40
-80 c-51 -99 -101 -155 -217 -243 -108 -82 -158 -145 -185 -231 -30 -94 -27
-165 11 -239 17 -34 42 -71 56 -81 l25 -20 -27 -35 c-45 -59 -67 -132 -73
-237 -5 -108 8 -184 40 -224 20 -26 20 -27 3 -123 -53 -296 -158 -496 -332
-634 -92 -73 -150 -109 -273 -167 -189 -88 -462 -166 -723 -206 -92 -14 -121
-24 -200 -65 -104 -55 -271 -114 -383 -136 -541 -103 -1029 154 -1292 682 -27
54 -55 117 -62 139 -7 23 -37 66 -69 100 -214 230 -383 505 -460 747 -75 239
-82 471 -19 668 43 135 173 340 216 340 38 0 120 50 170 104 58 62 90 124 101
194 6 44 8 47 44 54 91 19 165 79 205 167 35 76 40 202 17 411 -12 109 -16
206 -13 305 l4 146 84 84 c47 47 87 85 91 85 4 0 33 -16 65 -35 71 -43 170
-75 230 -75 l45 0 -7 -50 c-4 -27 -3 -50 1 -50 4 0 41 31 82 70 136 127 278
177 424 150z m-1645 -395 c35 -15 110 -78 125 -107 8 -15 -2 -43 -47 -136 -32
-64 -59 -119 -61 -121 -1 -2 -23 17 -47 43 -34 35 -53 46 -76 46 -18 0 -33 -6
-36 -15 -3 -8 11 -60 31 -117 44 -122 48 -179 20 -293 -25 -105 -27 -293 -3
-346 l16 -37 -53 -71 c-40 -53 -55 -66 -59 -53 -16 58 -73 318 -110 502 l-42
215 44 60 c82 112 112 196 121 345 l6 95 30 6 c37 9 99 1 141 -16z m4853
-1359 c149 -691 82 -1426 -192 -2092 -157 -383 -407 -765 -698 -1068 l-105
-110 -39 65 c-187 312 -449 616 -698 808 l-108 83 96 39 c253 102 430 223 540
370 l20 27 80 -15 c139 -25 362 7 524 76 300 127 513 414 576 775 54 314 -26
573 -223 712 -2 1 20 33 49 70 66 87 104 167 131 278 12 47 22 85 24 84 1 -2
12 -48 23 -102z m-6647 -451 c184 -466 415 -945 635 -1314 l74 -125 -71 -149
c-80 -167 -171 -370 -250 -559 -29 -71 -57 -128 -61 -128 -21 0 -193 292 -283
480 -329 689 -424 1467 -270 2214 13 65 24 121 24 125 1 3 34 -86 74 -199 40
-113 98 -268 128 -345z m6281 -3 c149 -66 225 -255 198 -492 -53 -450 -343
-731 -782 -757 -144 -8 -144 -8 -114 66 31 76 70 225 87 329 l12 80 40 12 c64
19 164 127 215 231 40 84 43 87 107 119 51 27 82 35 144 39 96 7 114 20 80 56
-32 34 -99 58 -170 59 -69 1 -66 -7 -45 121 8 50 18 104 20 122 3 18 13 34 23
37 33 10 143 -3 185 -22z m-4640 -2365 c53 -31 86 -72 119 -143 19 -41 23 -65
22 -154 0 -93 -4 -116 -35 -205 -41 -118 -89 -194 -168 -267 -63 -58 -175
-128 -204 -128 -19 0 -208 125 -309 205 l-58 45 0 74 c0 253 168 511 384 588
76 27 188 20 249 -15z m2795 -341 c324 -61 584 -189 771 -379 l53 -55 -63 -43
c-35 -24 -131 -84 -214 -134 l-150 -90 -8 -50 c-5 -27 -9 -171 -10 -320 -2
-254 -4 -272 -24 -310 -40 -75 -89 -105 -171 -105 -119 1 -219 97 -284 273
-44 121 -55 236 -38 419 7 84 15 177 17 206 6 66 -10 69 -62 11 -85 -94 -129
-251 -129 -459 0 -182 34 -308 112 -422 28 -41 29 -45 17 -90 -38 -151 -192
-222 -321 -149 -142 82 -214 302 -214 656 0 167 16 309 50 452 11 47 20 91 20
99 0 53 -95 -45 -145 -151 -71 -150 -105 -316 -105 -521 0 -195 26 -325 93
-464 18 -36 33 -68 35 -72 2 -4 -11 -17 -30 -28 -115 -70 -307 38 -399 225
-64 131 -80 211 -86 432 -7 257 14 384 98 590 16 40 9 49 -28 30 -110 -58
-207 -252 -234 -469 -14 -108 -29 -138 -104 -206 -69 -63 -135 -95 -205 -100
-64 -4 -108 19 -148 78 -91 135 -88 441 7 685 62 160 155 271 280 333 68 34
83 37 176 40 116 5 183 -10 274 -59 30 -16 58 -29 62 -29 3 0 33 16 65 35 106
64 281 122 450 150 117 19 474 14 592 -9z"/>
<path d="M5860 8967 c-69 -34 -185 -91 -258 -126 -73 -35 -132 -68 -132 -73 0
-21 86 -208 96 -208 5 0 26 16 45 36 52 54 147 128 244 189 49 30 91 55 95 55
3 0 46 -63 96 -140 49 -77 94 -140 100 -140 6 0 71 27 143 60 73 33 138 60
146 60 18 0 71 -173 121 -398 3 -13 10 -22 17 -19 7 2 56 14 109 26 l97 22
-20 52 c-64 162 -215 486 -238 510 -4 4 -77 -24 -161 -63 -84 -38 -157 -70
-161 -70 -4 0 -49 65 -100 145 -51 80 -98 145 -103 144 -6 0 -67 -28 -136 -62z"/>
<path d="M4800 7559 c-181 -35 -370 -221 -466 -458 -13 -32 -35 -100 -50 -152
-34 -125 -44 -346 -20 -458 17 -80 62 -186 101 -237 l25 -32 -32 -69 c-17 -37
-32 -70 -34 -71 -9 -12 -159 92 -214 148 -91 93 -138 194 -165 353 -5 34 -9
37 -28 31 -92 -29 -253 -179 -306 -285 -94 -188 -53 -398 94 -485 43 -25 43
-25 32 -62 -6 -20 -11 -82 -11 -137 1 -111 20 -179 74 -254 41 -56 123 -109
192 -123 l58 -12 -8 -55 c-14 -111 -7 -479 11 -580 65 -343 221 -574 465 -688
188 -88 429 -81 665 17 224 93 470 327 625 593 24 42 47 77 51 77 3 0 40 -7
81 -16 82 -17 176 -13 259 12 100 29 178 114 202 219 l12 53 81 -5 c92 -6 144
5 201 43 116 75 179 260 155 452 -10 80 -33 166 -50 192 -11 17 -6 19 -125
-54 -93 -57 -172 -78 -306 -84 -70 -2 -139 1 -174 8 l-57 12 6 36 c4 21 10 62
13 94 l6 56 65 17 c176 44 305 160 408 370 104 212 150 489 110 668 -37 164
-128 286 -261 348 -169 80 -333 58 -493 -64 -122 -93 -245 -301 -283 -478 -6
-27 -14 -49 -19 -49 -4 0 -43 18 -86 40 -88 45 -172 75 -265 94 -75 15 -72 2
-39 181 30 164 30 357 1 469 -47 179 -154 286 -318 321 -75 16 -116 17 -183 4z
m239 -154 c62 -34 101 -83 131 -161 29 -78 27 -90 -11 -62 -26 20 -43 23 -117
23 -116 0 -179 -29 -271 -123 -130 -132 -201 -327 -201 -552 l0 -96 -54 -53
-54 -53 -17 26 c-66 100 -92 300 -62 471 51 289 195 516 374 591 49 21 71 24
143 21 71 -2 94 -8 139 -32z m75 -269 c18 -7 43 -30 55 -49 23 -38 38 -124 27
-153 -6 -16 -8 -15 -22 4 -49 70 -160 70 -257 -2 -64 -47 -136 -195 -152 -313
-11 -78 -14 -82 -77 -114 l-61 -31 6 104 c7 125 35 226 90 332 93 175 267 274
391 222z m1300 -196 c198 -75 273 -325 192 -643 -46 -180 -120 -323 -215 -415
-56 -55 -142 -101 -199 -109 l-39 -5 -12 47 -12 46 66 71 c126 136 197 335
197 553 1 189 -45 301 -149 362 -40 23 -60 28 -115 28 -51 0 -64 3 -56 12 13
16 110 63 151 74 45 11 127 2 191 -21z m-199 -148 c16 -10 44 -38 60 -63 112
-165 52 -561 -112 -738 l-50 -55 -26 58 -27 58 31 36 c64 73 119 240 119 362
0 195 -139 292 -287 200 -38 -23 -39 -21 -14 28 60 116 207 171 306 114z
m-1122 -9 c52 -59 6 -173 -69 -173 -27 0 -37 6 -49 30 -19 37 -19 73 0 110 26
50 87 67 118 33z m927 -303 c28 -28 27 -98 -1 -134 -63 -80 -156 -26 -129 74
19 70 88 102 130 60z m-738 -64 c236 -46 442 -178 576 -373 145 -209 167 -484
52 -663 -94 -147 -282 -230 -518 -230 -289 0 -578 119 -756 311 -142 153 -197
345 -151 524 58 225 223 376 470 430 80 18 236 18 327 1z m-1034 -1219 c76
-149 176 -238 321 -284 118 -38 276 -33 382 11 13 6 25 -6 49 -50 18 -31 56
-80 85 -109 101 -101 218 -148 370 -149 109 -1 180 21 236 71 65 59 53 25 -44
-125 l-59 -92 -67 6 c-106 9 -287 42 -406 74 -354 94 -642 227 -854 396 l-84
66 7 119 c6 102 12 149 20 149 1 0 21 -37 44 -83z"/>
<path d="M3058 2970 c-44 -128 -130 -260 -253 -389 -41 -43 -75 -81 -75 -85 0
-16 81 -3 135 23 125 59 217 190 246 348 18 96 -25 181 -53 103z"/>
</g>
</svg>
